<svg width="114" height="101" viewBox="0 0 114 101" fill="none" xmlns="http://www.w3.org/2000/svg">
<path d="M18.5272 40.3085C19.3284 43.1126 23.2007 46.818 25.0367 48.3202C19.7791 48.3202 17.8977 50.3947 17.5258 51.3245C17.0251 52.5763 16.5243 54.5793 15.2725 53.8282C14.0207 53.0771 14.0207 51.5749 16.274 49.572C18.0766 47.9697 21.1978 47.4022 22.5331 47.3187C19.5287 45.5161 18.6107 41.8942 18.5272 40.3085Z" fill="#020B27"/>
<circle cx="54.5791" cy="39.0567" r="22.2842" stroke="#020B27" stroke-width="2.5"/>
<path d="M39.8084 10.2649C41.611 9.8643 43.0631 11.6002 43.5638 12.5182C43.6473 11.7671 43.4637 10.0145 42.0617 9.01307C40.3091 7.76125 37.5551 9.01306 36.804 10.7656C36.0089 12.6209 36.0529 15.5225 39.0573 17.2751C42.0617 19.0276 45.5668 18.0262 48.3207 16.2736C51.0747 14.5211 50.574 11.7671 50.574 10.7656C50.574 9.76416 49.0718 8.51235 48.0704 9.26344C47.0689 10.0145 47.5697 11.2663 48.3207 11.5167C49.0718 11.7671 49.5726 10.7656 49.5726 12.5182C49.5726 14.2707 47.82 15.2722 45.5668 16.0233C43.7641 16.6241 42.4789 15.7729 42.0617 15.2722C42.262 15.873 42.8128 16.524 43.0631 16.7743C41.5609 16.7743 39.8084 16.2736 38.5566 15.2722C37.3048 14.2707 37.5551 10.7656 39.8084 10.2649Z" fill="#020B27"/>
<path d="M68.716 10.2399C66.9415 9.84633 65.512 11.5516 65.0191 12.4534C64.9369 11.7156 65.1177 9.99391 66.4978 9.01009C68.2231 7.78033 70.9341 9.01009 71.6735 10.7318C72.4562 12.5544 72.4129 15.4049 69.4554 17.1265C66.4978 18.8482 63.0474 17.8644 60.3363 16.1427C57.6253 14.4211 58.1182 11.7156 58.1182 10.7318C58.1182 9.74796 59.597 8.51819 60.5828 9.25605C61.5686 9.99391 61.0757 11.2237 60.3363 11.4696C59.597 11.7156 59.104 10.7318 59.104 12.4534C59.104 14.1751 60.8293 15.1589 63.0474 15.8968C64.8219 16.4871 66.0871 15.6508 66.4978 15.1589C66.3007 15.7492 65.7585 16.3887 65.512 16.6346C66.9908 16.6346 68.716 16.1427 69.9483 15.1589C71.1806 14.1751 70.9341 10.7318 68.716 10.2399Z" fill="#020B27"/>
<path d="M27.8224 70.3337C31.1179 71.0793 33.7726 67.8483 34.6881 66.1396C34.8406 67.5376 34.505 70.7997 31.9418 72.6638C28.7378 74.9939 23.703 72.6638 22.3299 69.4017C20.8763 65.9483 20.9567 60.5474 26.4493 57.2853C31.9418 54.0231 38.3497 55.8872 43.3846 59.1493C48.4194 62.4114 47.504 67.5376 47.504 69.4017C47.504 71.2657 44.7577 73.5958 42.9269 72.1978C41.096 70.7997 42.0114 68.4696 43.3846 68.0036C44.7577 67.5376 45.6731 69.4017 45.6731 66.1396C45.6731 62.8775 42.4691 61.0134 38.3497 59.6153C35.0542 58.4969 32.7047 60.0813 31.9418 61.0134C32.308 59.8949 33.3149 58.6833 33.7726 58.2173C31.0264 58.2173 27.8224 59.1493 25.5338 61.0134C23.2453 62.8774 23.703 69.4017 27.8224 70.3337Z" fill="#020B27"/>
<path d="M80.8358 70.4246C77.5403 71.1496 74.8856 68.0083 73.9701 66.347C73.8176 67.7062 74.1532 70.8777 76.7164 72.69C79.9204 74.9554 84.9552 72.69 86.3283 69.5185C87.782 66.161 87.7015 60.9101 82.2089 57.7386C76.7164 54.5671 70.3085 56.3794 65.2736 59.5509C60.2388 62.7224 61.1542 67.7062 61.1542 69.5185C61.1542 71.3308 63.9005 73.5961 65.7313 72.2369C67.5622 70.8777 66.6468 68.6123 65.2736 68.1593C63.9005 67.7062 62.9851 69.5185 62.9851 66.347C62.9851 63.1755 66.1891 61.3632 70.3085 60.004C73.604 58.9166 75.9536 60.4571 76.7164 61.3632C76.3502 60.2758 75.3433 59.0978 74.8856 58.6448C77.6318 58.6448 80.8358 59.5509 83.1244 61.3632C85.4129 63.1755 84.9552 69.5185 80.8358 70.4246Z" fill="#020B27"/>
<path d="M28.7915 46.5676C30.7944 49.3216 33.2146 53.244 34.0492 55.3303C29.793 52.326 28.5412 52.5763 25.7872 52.326C23.7046 52.1367 20.4461 54.4123 19.0273 55.8311C19.5281 52.0756 22.7828 50.5734 24.7857 50.3231C26.388 50.1228 29.1253 50.7403 30.2937 51.0742C29.793 50.6569 28.1907 49.2215 25.7872 46.818C22.7828 43.8136 20.2792 36.3027 20.7799 30.0436C21.2806 23.7845 23.2835 19.5284 26.2879 18.2765C29.2923 17.0247 32.0462 18.0262 33.2981 20.7802C34.5499 23.5342 30.7944 28.7918 31.0448 26.2882C31.2451 24.2853 30.1268 22.95 29.5426 22.5327C29.9599 23.2838 30.494 24.786 29.2923 24.786C27.7901 24.786 25.0361 25.5371 24.0346 29.2925C23.2335 32.2969 23.8677 36.8869 24.285 38.8063C24.285 36.0523 24.7857 35.3013 25.5368 34.2998C26.2879 33.2984 28.0404 33.5487 28.2908 34.5502C28.5412 35.5516 27.7901 36.0524 26.7886 35.802C25.7872 35.5516 25.2864 37.8049 25.2864 39.0567C25.2864 40.3085 26.4245 43.3129 28.7915 46.5676Z" fill="#020B27"/>
<path d="M89.8824 40.5589C89.0502 43.432 85.0279 47.2286 83.1207 48.7677C88.5821 48.7677 90.5363 50.8933 90.9227 51.846C91.4428 53.1287 91.9629 55.1809 93.2633 54.4113C94.5636 53.6417 94.5636 52.1026 92.223 50.0504C90.3505 48.4086 87.1084 47.8271 85.7214 47.7416C88.8422 45.8946 89.7957 42.1836 89.8824 40.5589Z" fill="#020B27"/>
<path d="M79.0393 46.9612C76.9696 49.8215 74.4687 53.8952 73.6064 56.0621C78.0044 52.9418 79.298 53.2018 82.1438 52.9418C84.2957 52.7452 87.6629 55.1087 89.1289 56.5822C88.6115 52.6818 85.2483 51.1216 83.1786 50.8616C81.5229 50.6535 78.6943 51.2949 77.487 51.6416C78.0044 51.2083 79.6602 49.7174 82.1438 47.2212C85.2483 44.1009 87.8354 36.3001 87.3179 29.7994C86.8005 23.2987 84.7309 18.8783 81.6263 17.5781C78.5218 16.278 75.676 17.3181 74.3825 20.1784C73.089 23.0387 76.9696 28.4993 76.7109 25.899C76.5039 23.8188 77.6595 22.432 78.2631 21.9986C77.832 22.7787 77.28 24.3388 78.5218 24.3388C80.0741 24.3388 82.9199 25.1189 83.9547 29.0193C84.7826 32.1396 84.1272 36.9068 83.696 38.9003C83.696 36.04 83.1786 35.26 82.4025 34.2199C81.6263 33.1798 79.8154 33.4398 79.5567 34.4799C79.298 35.52 80.0741 36.04 81.1089 35.78C82.1438 35.52 82.6612 37.8602 82.6612 39.1604C82.6612 40.4605 81.4852 43.5808 79.0393 46.9612Z" fill="#020B27"/>
<path d="M54.3288 15.5225C52.7431 13.0189 50.5232 6.40931 54.3288 0C55.9979 3.25473 58.3346 10.9158 54.3288 15.5225Z" fill="#020B27"/>
<path d="M54.3288 78.1134C52.7431 75.6098 50.5232 69.0002 54.3288 62.5909C55.9979 65.8456 58.3346 73.5067 54.3288 78.1134Z" fill="#020B27"/>
<rect x="0.250364" y="77.3623" width="44.5647" height="0.500727" fill="#020B27" stroke="#020B27" stroke-width="0.500727"/>
<rect x="0.250364" y="99.3943" width="113.164" height="0.500727" fill="#020B27" stroke="#020B27" stroke-width="0.500727"/>
<rect x="65.3451" y="77.3623" width="48.0698" height="0.500727" fill="#020B27" stroke="#020B27" stroke-width="0.500727"/>
<path d="M11.9161 95.4594C11.3669 95.4594 10.9114 95.3863 10.5497 95.24C10.188 95.0938 9.87985 94.901 9.62532 94.6617C9.37079 94.4223 9.12965 94.1631 8.90192 93.8838L4.76242 88.8381C4.58827 88.6254 4.45431 88.4924 4.36053 88.4392C4.28015 88.3728 4.16628 88.3329 4.01892 88.3196V87.7213C5.30498 87.8276 6.30971 87.6481 7.03312 87.1828C7.75652 86.7174 8.11823 86.0061 8.11823 85.0488C8.11823 84.3973 7.97086 83.9054 7.67614 83.573C7.38142 83.2273 6.99962 82.9946 6.53075 82.875C6.06188 82.7553 5.56621 82.6955 5.04375 82.6955C4.56148 82.6955 4.19977 82.7753 3.95864 82.9348C3.7309 83.0811 3.61703 83.46 3.61703 84.0716V93.3454C3.61703 93.7974 3.66392 94.1298 3.75769 94.3426C3.86486 94.5553 4.05241 94.6949 4.32034 94.7614C4.58827 94.8278 4.98347 94.8677 5.50593 94.881V95.3397H0.502365V94.881C0.864068 94.8677 1.14539 94.8278 1.34634 94.7614C1.56068 94.6949 1.70804 94.5553 1.78842 94.3426C1.8688 94.1298 1.90899 93.7974 1.90899 93.3454V84.0716C1.90899 83.6062 1.8554 83.2738 1.74823 83.0744C1.65446 82.8617 1.47361 82.7221 1.20568 82.6556C0.937749 82.5891 0.535856 82.5492 0 82.5359V82.0772H1.90899C2.83334 82.0772 3.56345 82.0639 4.0993 82.0373C4.63516 81.9975 5.13083 81.9775 5.5863 81.9775C7.11349 81.9775 8.23209 82.2567 8.9421 82.8151C9.66551 83.3603 10.0272 84.0583 10.0272 84.9092C10.0272 85.7867 9.68561 86.5114 9.00239 87.0831C8.33257 87.6548 7.4752 88.0204 6.43028 88.18V88.2199L10.5899 93.2855C10.965 93.7243 11.2664 94.0633 11.4941 94.3027C11.7353 94.5287 11.963 94.6816 12.1773 94.7614C12.3917 94.8411 12.6462 94.881 12.9409 94.881V95.3397C12.7668 95.3929 12.5926 95.4262 12.4185 95.4395C12.2443 95.4527 12.0769 95.4594 11.9161 95.4594Z" fill="#020B27"/>
<path d="M20.1436 81.7781C21.0546 81.7781 21.9119 81.9376 22.7157 82.2567C23.5195 82.5758 24.2362 83.0412 24.8658 83.6528C25.4955 84.2511 25.9844 84.9757 26.3327 85.8266C26.6944 86.6776 26.8753 87.6282 26.8753 88.6786C26.8753 89.7289 26.6944 90.6796 26.3327 91.5305C25.9844 92.3814 25.4955 93.1127 24.8658 93.7243C24.2496 94.3359 23.5329 94.8079 22.7157 95.1403C21.8985 95.4727 21.0345 95.6389 20.1235 95.6389C19.2259 95.6389 18.3686 95.4793 17.5514 95.1602C16.7476 94.8411 16.0309 94.3824 15.4013 93.7841C14.785 93.1725 14.2961 92.4413 13.9344 91.5903C13.5861 90.7394 13.4119 89.7888 13.4119 88.7384C13.4119 87.688 13.5861 86.7374 13.9344 85.8865C14.2961 85.0355 14.785 84.3043 15.4013 83.6927C16.0309 83.0811 16.7476 82.6091 17.5514 82.2767C18.3686 81.9443 19.2326 81.7781 20.1436 81.7781ZM20.4249 94.8411C21.2287 94.8411 21.9655 94.6218 22.6353 94.183C23.3185 93.7442 23.8678 93.0994 24.2831 92.2485C24.6984 91.3842 24.906 90.3206 24.906 89.0575C24.906 87.6747 24.6649 86.5047 24.1826 85.5474C23.7003 84.5768 23.0774 83.8389 22.3138 83.3337C21.5502 82.8284 20.733 82.5758 19.8623 82.5758C19.0585 82.5758 18.315 82.7952 17.6318 83.234C16.9486 83.6727 16.3993 84.3242 15.984 85.1884C15.5687 86.0394 15.3611 87.0964 15.3611 88.3595C15.3611 89.7422 15.6022 90.9189 16.0845 91.8895C16.5668 92.8468 17.1964 93.578 17.9734 94.0833C18.7504 94.5885 19.5676 94.8411 20.4249 94.8411Z" fill="#020B27"/>
<path d="M34.9836 82.0772H38.7212V82.5359C38.4265 82.5625 38.1452 82.6955 37.8773 82.9348C37.6227 83.1608 37.3347 83.5398 37.0132 84.0716L34.4612 88.3395C34.3272 88.5523 34.2267 88.745 34.1597 88.9179C34.1062 89.0907 34.0794 89.35 34.0794 89.6957V93.3454C34.0794 93.7974 34.1263 94.1298 34.22 94.3426C34.3138 94.5553 34.4947 94.6949 34.7626 94.7614C35.0439 94.8278 35.4458 94.8677 35.9683 94.881V95.3397H30.9647V94.881C31.3264 94.8677 31.6077 94.8278 31.8087 94.7614C32.023 94.6949 32.1704 94.5553 32.2508 94.3426C32.3311 94.1298 32.3713 93.7974 32.3713 93.3454V89.6957C32.3713 89.35 32.3445 89.0907 32.2909 88.9179C32.2374 88.745 32.1503 88.5523 32.0297 88.3395L29.6184 84.0716C29.3638 83.6195 29.1495 83.2871 28.9753 83.0744C28.8012 82.8617 28.6203 82.7221 28.4328 82.6556C28.2452 82.5891 28.0041 82.5492 27.7094 82.5359V82.0772H32.1905V82.5359C31.601 82.5625 31.2594 82.6689 31.1656 82.855C31.0719 83.0279 31.2058 83.4334 31.5675 84.0716L33.6976 87.9207H33.7378L36.0285 84.0716C36.3367 83.5398 36.3969 83.1608 36.2094 82.9348C36.0218 82.6955 35.6133 82.5625 34.9836 82.5359V82.0772Z" fill="#020B27"/>
<path d="M48.9031 93.3454C49.0638 93.8107 49.2179 94.1498 49.3653 94.3625C49.5126 94.5619 49.6868 94.6949 49.8877 94.7614C50.1021 94.8146 50.3834 94.8544 50.7317 94.881V95.3397H45.9291V94.881C46.3846 94.8544 46.7195 94.8079 46.9338 94.7414C47.1615 94.6749 47.2888 94.5353 47.3156 94.3226C47.3424 94.1099 47.2754 93.7841 47.1147 93.3454L45.9693 89.9151C45.9023 89.9815 45.8018 90.0281 45.6678 90.0547C45.5339 90.068 45.3932 90.0746 45.2459 90.0746H42.6135C42.3187 90.0746 42.0977 90.1079 41.9503 90.1743C41.803 90.2408 41.6757 90.4203 41.5685 90.7128L40.6241 93.3454C40.4499 93.8506 40.4499 94.2295 40.6241 94.4822C40.8116 94.7215 41.3341 94.8544 42.1915 94.881V95.3397H38.0319V94.881C38.4606 94.8544 38.7955 94.7215 39.0366 94.4822C39.2911 94.2295 39.5122 93.8506 39.6997 93.3454L43.2565 83.6528C43.3904 83.3071 43.5177 82.968 43.6383 82.6357C43.7589 82.3033 43.866 81.9642 43.9598 81.6185H44.9444C45.0382 81.9642 45.1387 82.3033 45.2459 82.6357C45.3664 82.968 45.4937 83.3071 45.6277 83.6528L48.9031 93.3454ZM45.286 89.3567C45.4602 89.3567 45.5808 89.3367 45.6477 89.2968C45.7147 89.2436 45.7147 89.1373 45.6477 88.9777L44 84.1314H43.9598L42.0307 89.4165C42.0977 89.3899 42.1781 89.3766 42.2718 89.3766C42.3656 89.3633 42.4728 89.3567 42.5934 89.3567H45.286Z" fill="#020B27"/>
<path d="M52.0733 95.3397V94.881C52.435 94.8677 52.7163 94.8278 52.9173 94.7614C53.1182 94.6949 53.2589 94.5553 53.3393 94.3426C53.4331 94.1298 53.4799 93.7974 53.4799 93.3454V84.0716C53.4799 83.6062 53.4263 83.2738 53.3192 83.0744C53.2254 82.8617 53.0446 82.7221 52.7766 82.6556C52.5087 82.5891 52.1068 82.5492 51.5709 82.5359V82.0772H56.5946V82.5359C56.2329 82.5492 55.9516 82.5891 55.7506 82.6556C55.5497 82.7221 55.4023 82.8617 55.3085 83.0744C55.2282 83.2738 55.188 83.6062 55.188 84.0716V93.3454C55.188 93.9171 55.2885 94.2761 55.4894 94.4223C55.7037 94.5553 56.1123 94.6218 56.7152 94.6218H58.5438C59.2136 94.6218 59.7294 94.5154 60.0911 94.3027C60.4662 94.0766 60.7341 93.7841 60.8948 93.4251C61.069 93.0529 61.1762 92.654 61.2164 92.2285H61.6785L61.5178 95.3397H52.0733Z" fill="#020B27"/>
<path d="M63.3962 95.3397V94.881C63.7579 94.8677 64.0392 94.8278 64.2401 94.7614C64.4545 94.6949 64.6018 94.5553 64.6822 94.3426C64.7626 94.1298 64.8028 93.7974 64.8028 93.3454V84.0716C64.8028 83.6062 64.7492 83.2738 64.642 83.0744C64.5482 82.8617 64.3674 82.7221 64.0995 82.6556C63.8315 82.5891 63.4296 82.5492 62.8938 82.5359V82.0772H64.8028C65.4592 82.0772 65.9951 82.0706 66.4103 82.0573C66.8256 82.0307 67.2074 82.0108 67.5557 81.9975C67.9174 81.9842 68.3327 81.9775 68.8016 81.9775C70.2216 81.9775 71.2599 82.2235 71.9163 82.7154C72.5727 83.1941 72.9009 83.8256 72.9009 84.6101C72.9009 85.4211 72.633 86.066 72.0971 86.5446C71.5613 87.0232 70.9048 87.4022 70.1279 87.6814V87.7213C70.945 87.7612 71.6684 87.9207 72.2981 88.1999C72.9411 88.4658 73.4502 88.8448 73.8253 89.3367C74.2004 89.8286 74.3879 90.427 74.3879 91.1316C74.3879 91.823 74.2004 92.4944 73.8253 93.1459C73.4636 93.7841 72.8875 94.3093 72.0971 94.7215C71.3201 95.1336 70.302 95.3397 69.0427 95.3397H63.3962ZM66.5108 87.9606C66.685 87.8409 66.8457 87.7678 66.9931 87.7412C67.1539 87.7013 67.3414 87.6747 67.5557 87.6614C67.9576 87.6216 68.3595 87.5617 68.7614 87.482C69.1767 87.3889 69.5518 87.2426 69.8867 87.0432C70.235 86.8438 70.5164 86.5712 70.7307 86.2255C70.945 85.8665 71.0522 85.4145 71.0522 84.8693C71.0522 84.2444 70.9048 83.7791 70.6101 83.4733C70.3154 83.1675 69.947 82.9614 69.5049 82.855C69.0628 82.7487 68.6074 82.6955 68.1385 82.6955C67.5624 82.6955 67.1472 82.7686 66.8926 82.9149C66.6381 83.0611 66.5108 83.4467 66.5108 84.0716V87.9606ZM68.882 94.6218C69.8331 94.6218 70.5699 94.4489 71.0924 94.1032C71.6283 93.7575 72.0034 93.3321 72.2177 92.8268C72.432 92.3083 72.5392 91.7964 72.5392 91.2912C72.5392 90.5599 72.3517 89.9815 71.9766 89.5561C71.6149 89.1173 71.1192 88.8049 70.4896 88.6187C69.8733 88.4193 69.1767 88.3196 68.3997 88.3196C67.7433 88.3196 67.261 88.406 66.9529 88.5788C66.6582 88.7384 66.5108 89.0442 66.5108 89.4963V93.3454C66.5108 93.7309 66.5778 94.0168 66.7118 94.2029C66.8457 94.3758 67.0802 94.4888 67.4151 94.542C67.7634 94.5952 68.2524 94.6218 68.882 94.6218Z" fill="#020B27"/>
<path d="M76.7206 95.3397V94.881C77.0823 94.8677 77.3636 94.8278 77.5646 94.7614C77.7655 94.6949 77.9062 94.5553 77.9866 94.3426C78.0804 94.1298 78.1272 93.7974 78.1272 93.3454V84.0716C78.1272 83.6062 78.0737 83.2738 77.9665 83.0744C77.8727 82.8617 77.6919 82.7221 77.4239 82.6556C77.156 82.5891 76.7541 82.5492 76.2183 82.5359V82.0772H81.2419V82.5359C80.8802 82.5492 80.5989 82.5891 80.3979 82.6556C80.197 82.7221 80.0496 82.8617 79.9559 83.0744C79.8755 83.2738 79.8353 83.6062 79.8353 84.0716V93.3454C79.8353 93.9171 79.9358 94.2761 80.1367 94.4223C80.351 94.5553 80.7596 94.6218 81.3625 94.6218H83.1911C83.8609 94.6218 84.3767 94.5154 84.7384 94.3027C85.1135 94.0766 85.3814 93.7841 85.5422 93.4251C85.7163 93.0529 85.8235 92.654 85.8637 92.2285H86.3258L86.1651 95.3397H76.7206Z" fill="#020B27"/>
<path d="M92.2359 95.6389C91.0838 95.6389 90.213 95.3264 89.6236 94.7015C89.0475 94.0633 88.7595 93.1991 88.7595 92.1089V84.0716C88.7595 83.6062 88.7126 83.2738 88.6188 83.0744C88.525 82.8617 88.3509 82.7221 88.0964 82.6556C87.8552 82.5891 87.5002 82.5492 87.0314 82.5359V82.0772H91.8742V82.5359C91.5125 82.5492 91.2311 82.5891 91.0302 82.6556C90.8292 82.7221 90.6819 82.8617 90.5881 83.0744C90.5077 83.2738 90.4675 83.6062 90.4675 84.0716V91.6502C90.4675 92.4213 90.6283 93.0662 90.9498 93.5847C91.2847 94.0899 91.8808 94.3426 92.7382 94.3426C93.3679 94.3426 93.964 94.2029 94.5266 93.9237C95.0893 93.6445 95.585 93.2589 96.0136 92.767C96.4557 92.2618 96.7973 91.6834 97.0385 91.0319C97.293 90.3804 97.4203 89.6757 97.4203 88.9179V84.0716C97.4203 83.6062 97.3734 83.2738 97.2796 83.0744C97.1858 82.8617 96.9983 82.7221 96.717 82.6556C96.449 82.5891 96.0538 82.5492 95.5314 82.5359V82.0772H100.434V82.5359C100.073 82.5492 99.7914 82.5891 99.5905 82.6556C99.3895 82.7221 99.2422 82.8617 99.1484 83.0744C99.068 83.2738 99.0278 83.6062 99.0278 84.0716V93.3653C99.0278 93.8174 99.068 94.1498 99.1484 94.3625C99.2422 94.5619 99.3962 94.6949 99.6106 94.7614C99.8383 94.8278 100.146 94.8677 100.535 94.881V95.3397H97.6815C97.6011 95.127 97.5408 94.8744 97.5006 94.5819C97.4605 94.2761 97.4404 93.8639 97.4404 93.3454V91.6502H97.4002C96.8777 92.9 96.1878 93.8772 95.3304 94.5819C94.4865 95.2865 93.4549 95.6389 92.2359 95.6389Z" fill="#020B27"/>
<path d="M103.075 95.3397V94.881C103.437 94.8677 103.718 94.8278 103.919 94.7614C104.12 94.6949 104.261 94.5553 104.341 94.3426C104.435 94.1298 104.482 93.7974 104.482 93.3454V84.0716C104.482 83.6062 104.428 83.2738 104.321 83.0744C104.227 82.8617 104.046 82.7221 103.778 82.6556C103.511 82.5891 103.109 82.5492 102.573 82.5359V82.0772H112.138V84.8693H111.676C111.662 84.4439 111.595 84.0782 111.475 83.7724C111.354 83.4533 111.133 83.214 110.812 83.0545C110.49 82.8816 110.015 82.7952 109.385 82.7952H107.074C106.793 82.7952 106.572 82.8617 106.411 82.9946C106.264 83.1276 106.19 83.4866 106.19 84.0716V87.821C106.297 87.7412 106.424 87.688 106.572 87.6614C106.732 87.6349 106.92 87.6216 107.134 87.6216H109.968C110.758 87.6216 111.173 87.1828 111.213 86.3053H111.676V89.6957H111.213C111.2 89.1506 111.106 88.7916 110.932 88.6187C110.758 88.4326 110.437 88.3395 109.968 88.3395H107.174C106.813 88.3395 106.558 88.3994 106.411 88.519C106.264 88.6387 106.19 88.8714 106.19 89.217V93.3454C106.19 93.9171 106.29 94.2761 106.491 94.4223C106.706 94.5553 107.114 94.6218 107.717 94.6218H110.51C111.167 94.6218 111.682 94.5154 112.057 94.3027C112.433 94.0766 112.707 93.7841 112.881 93.4251C113.056 93.0529 113.163 92.654 113.203 92.2285H113.665L113.504 95.3397H103.075Z" fill="#020B27"/>
<mask id="path-16-inside-1_58_75" fill="white">
<path fill-rule="evenodd" clip-rule="evenodd" d="M54.5796 59.5865C65.9179 59.5865 75.1094 50.395 75.1094 39.0567C75.1094 27.7184 65.9179 18.5269 54.5796 18.5269C43.2413 18.5269 34.0498 27.7184 34.0498 39.0567C34.0498 50.395 43.2413 59.5865 54.5796 59.5865ZM45.3963 49.3164V50.0727H54.7438C56.8284 50.0727 58.5138 49.7329 59.8001 49.0533C61.1085 48.3737 62.0621 47.5078 62.6609 46.4555C63.2818 45.3813 63.5923 44.2742 63.5923 43.1343C63.5923 41.9724 63.2818 40.9859 62.6609 40.1748C62.0399 39.3636 61.1972 38.7388 60.1327 38.3004C59.0904 37.84 57.8929 37.577 56.5401 37.5112V37.4454C57.8264 36.9851 58.913 36.3603 59.8001 35.5711C60.6872 34.7819 61.1307 33.7186 61.1307 32.3814C61.1307 31.0879 60.5874 30.0466 59.5007 29.2574C58.4141 28.4463 56.6954 28.0407 54.3446 28.0407C53.5684 28.0407 52.881 28.0517 52.2822 28.0736C51.7056 28.0955 51.0736 28.1284 50.3861 28.1723C49.6986 28.1942 48.8115 28.2051 47.7249 28.2051H44.5647V28.9615C45.4518 28.9834 46.1171 29.0492 46.5606 29.1588C47.0041 29.2684 47.3035 29.4986 47.4587 29.8493C47.6362 30.1782 47.7249 30.7262 47.7249 31.4935V46.7844C47.7249 47.5297 47.6583 48.0778 47.5253 48.4285C47.3922 48.7793 47.1483 49.0095 46.7934 49.1191C46.4608 49.2287 45.9951 49.2945 45.3963 49.3164ZM51.3508 37.5441C51.1068 37.5879 50.8407 37.7085 50.5524 37.9058V31.4935C50.5524 30.4631 50.7631 29.8274 51.1844 29.5862C51.6058 29.3451 52.2933 29.2245 53.2469 29.2245C54.0231 29.2245 54.7771 29.3122 55.5089 29.4876C56.2407 29.663 56.8506 30.0028 57.3385 30.507C57.8264 31.0112 58.0703 31.7785 58.0703 32.8088C58.0703 33.7077 57.8929 34.453 57.5381 35.0449C57.1832 35.6149 56.7175 36.0643 56.1409 36.3931C55.5865 36.722 54.9656 36.9631 54.2781 37.1166C53.6128 37.2481 52.9475 37.3468 52.2822 37.4125C51.9274 37.4345 51.6169 37.4783 51.3508 37.5441ZM58.1368 48.0339C57.2719 48.6039 56.0522 48.8889 54.4777 48.8889C53.4354 48.8889 52.6259 48.8451 52.0493 48.7574C51.4949 48.6697 51.1068 48.4833 50.8851 48.1984C50.6633 47.8914 50.5524 47.4201 50.5524 46.7844V40.4378C50.5524 39.6925 50.7963 39.1883 51.2842 38.9252C51.7943 38.6402 52.5927 38.4977 53.6793 38.4977C54.9656 38.4977 56.1188 38.6621 57.1389 38.9909C58.1812 39.2979 59.0017 39.813 59.6005 40.5365C60.2215 41.238 60.5319 42.1916 60.5319 43.3973C60.5319 44.2304 60.3545 45.0744 59.9997 45.9294C59.6449 46.7624 59.0239 47.464 58.1368 48.0339Z"/>
</mask>
<path fill-rule="evenodd" clip-rule="evenodd" d="M54.5796 59.5865C65.9179 59.5865 75.1094 50.395 75.1094 39.0567C75.1094 27.7184 65.9179 18.5269 54.5796 18.5269C43.2413 18.5269 34.0498 27.7184 34.0498 39.0567C34.0498 50.395 43.2413 59.5865 54.5796 59.5865ZM45.3963 49.3164V50.0727H54.7438C56.8284 50.0727 58.5138 49.7329 59.8001 49.0533C61.1085 48.3737 62.0621 47.5078 62.6609 46.4555C63.2818 45.3813 63.5923 44.2742 63.5923 43.1343C63.5923 41.9724 63.2818 40.9859 62.6609 40.1748C62.0399 39.3636 61.1972 38.7388 60.1327 38.3004C59.0904 37.84 57.8929 37.577 56.5401 37.5112V37.4454C57.8264 36.9851 58.913 36.3603 59.8001 35.5711C60.6872 34.7819 61.1307 33.7186 61.1307 32.3814C61.1307 31.0879 60.5874 30.0466 59.5007 29.2574C58.4141 28.4463 56.6954 28.0407 54.3446 28.0407C53.5684 28.0407 52.881 28.0517 52.2822 28.0736C51.7056 28.0955 51.0736 28.1284 50.3861 28.1723C49.6986 28.1942 48.8115 28.2051 47.7249 28.2051H44.5647V28.9615C45.4518 28.9834 46.1171 29.0492 46.5606 29.1588C47.0041 29.2684 47.3035 29.4986 47.4587 29.8493C47.6362 30.1782 47.7249 30.7262 47.7249 31.4935V46.7844C47.7249 47.5297 47.6583 48.0778 47.5253 48.4285C47.3922 48.7793 47.1483 49.0095 46.7934 49.1191C46.4608 49.2287 45.9951 49.2945 45.3963 49.3164ZM51.3508 37.5441C51.1068 37.5879 50.8407 37.7085 50.5524 37.9058V31.4935C50.5524 30.4631 50.7631 29.8274 51.1844 29.5862C51.6058 29.3451 52.2933 29.2245 53.2469 29.2245C54.0231 29.2245 54.7771 29.3122 55.5089 29.4876C56.2407 29.663 56.8506 30.0028 57.3385 30.507C57.8264 31.0112 58.0703 31.7785 58.0703 32.8088C58.0703 33.7077 57.8929 34.453 57.5381 35.0449C57.1832 35.6149 56.7175 36.0643 56.1409 36.3931C55.5865 36.722 54.9656 36.9631 54.2781 37.1166C53.6128 37.2481 52.9475 37.3468 52.2822 37.4125C51.9274 37.4345 51.6169 37.4783 51.3508 37.5441ZM58.1368 48.0339C57.2719 48.6039 56.0522 48.8889 54.4777 48.8889C53.4354 48.8889 52.6259 48.8451 52.0493 48.7574C51.4949 48.6697 51.1068 48.4833 50.8851 48.1984C50.6633 47.8914 50.5524 47.4201 50.5524 46.7844V40.4378C50.5524 39.6925 50.7963 39.1883 51.2842 38.9252C51.7943 38.6402 52.5927 38.4977 53.6793 38.4977C54.9656 38.4977 56.1188 38.6621 57.1389 38.9909C58.1812 39.2979 59.0017 39.813 59.6005 40.5365C60.2215 41.238 60.5319 42.1916 60.5319 43.3973C60.5319 44.2304 60.3545 45.0744 59.9997 45.9294C59.6449 46.7624 59.0239 47.464 58.1368 48.0339Z" fill="#020B27"/>
<path d="M45.3963 50.0727H44.3963V51.0727H45.3963V50.0727ZM45.3963 49.3164L45.3597 48.3171L44.3963 48.3523V49.3164H45.3963ZM59.8001 49.0533L59.3392 48.1659L59.3329 48.1691L59.8001 49.0533ZM62.6609 46.4555L61.7951 45.9551L61.7918 45.961L62.6609 46.4555ZM62.6609 40.1748L63.4549 39.5669L63.4549 39.5669L62.6609 40.1748ZM60.1327 38.3004L59.7287 39.2151L59.7402 39.2202L59.7519 39.225L60.1327 38.3004ZM56.5401 37.5112H55.5401V38.4638L56.4916 38.51L56.5401 37.5112ZM56.5401 37.4454L56.2031 36.5039L55.5401 36.7412V37.4454H56.5401ZM59.5007 29.2574L58.9025 30.0588L58.9131 30.0665L59.5007 29.2574ZM52.2822 28.0736L52.2456 27.0743L52.2442 27.0743L52.2822 28.0736ZM50.3861 28.1723L50.4179 29.1717L50.4338 29.1712L50.4497 29.1702L50.3861 28.1723ZM44.5647 28.2051V27.2051H43.5647V28.2051H44.5647ZM44.5647 28.9615H43.5647V29.9371L44.54 29.9612L44.5647 28.9615ZM46.5606 29.1588L46.3207 30.1296H46.3207L46.5606 29.1588ZM47.4587 29.8493L46.5443 30.254L46.5601 30.2898L46.5787 30.3241L47.4587 29.8493ZM47.5253 48.4285L46.5903 48.0738V48.0738L47.5253 48.4285ZM46.7934 49.1191L46.4983 48.1636L46.4894 48.1664L46.4805 48.1693L46.7934 49.1191ZM50.5524 37.9058H49.5524V39.8019L51.1172 38.731L50.5524 37.9058ZM51.3508 37.5441L51.5277 38.5283L51.5594 38.5226L51.5907 38.5149L51.3508 37.5441ZM51.1844 29.5862L50.6877 28.7183L51.1844 29.5862ZM55.5089 29.4876L55.7419 28.5151L55.7419 28.5151L55.5089 29.4876ZM57.3385 30.507L56.6198 31.2024L56.6198 31.2024L57.3385 30.507ZM57.5381 35.0449L58.387 35.5734L58.3914 35.5663L58.3958 35.5591L57.5381 35.0449ZM56.1409 36.3931L55.6455 35.5245L55.6381 35.5287L55.6308 35.5331L56.1409 36.3931ZM54.2781 37.1166L54.472 38.0976L54.484 38.0952L54.4959 38.0926L54.2781 37.1166ZM52.2822 37.4125L52.3439 38.4106L52.3622 38.4095L52.3806 38.4077L52.2822 37.4125ZM58.1368 48.0339L57.5962 47.1926L57.5866 47.1989L58.1368 48.0339ZM52.0493 48.7574L51.8931 49.7451L51.899 49.746L52.0493 48.7574ZM50.8851 48.1984L50.0745 48.784L50.0849 48.7984L50.0958 48.8125L50.8851 48.1984ZM51.2842 38.9252L51.7588 39.8054L51.7654 39.8018L51.772 39.7982L51.2842 38.9252ZM57.1389 38.9909L56.8321 39.9427L56.8442 39.9466L56.8564 39.9502L57.1389 38.9909ZM59.6005 40.5365L58.8301 41.1741L58.8407 41.1869L58.8517 41.1993L59.6005 40.5365ZM59.9997 45.9294L60.9197 46.3213L60.9233 46.3127L59.9997 45.9294ZM74.1094 39.0567C74.1094 49.8427 65.3656 58.5865 54.5796 58.5865V60.5865C66.4702 60.5865 76.1094 50.9473 76.1094 39.0567H74.1094ZM54.5796 19.5269C65.3656 19.5269 74.1094 28.2707 74.1094 39.0567H76.1094C76.1094 27.1661 66.4702 17.5269 54.5796 17.5269V19.5269ZM35.0498 39.0567C35.0498 28.2707 43.7936 19.5269 54.5796 19.5269V17.5269C42.689 17.5269 33.0498 27.1661 33.0498 39.0567H35.0498ZM54.5796 58.5865C43.7936 58.5865 35.0498 49.8427 35.0498 39.0567H33.0498C33.0498 50.9473 42.689 60.5865 54.5796 60.5865V58.5865ZM46.3963 50.0727V49.3164H44.3963V50.0727H46.3963ZM54.7438 49.0727H45.3963V51.0727H54.7438V49.0727ZM59.3329 48.1691C58.2394 48.7469 56.7315 49.0727 54.7438 49.0727V51.0727C56.9253 51.0727 58.7883 50.7189 60.2673 49.9375L59.3329 48.1691ZM61.7918 45.961C61.3073 46.8123 60.514 47.5557 59.3392 48.1659L60.261 49.9408C61.703 49.1918 62.817 48.2032 63.53 46.9501L61.7918 45.961ZM62.5923 43.1343C62.5923 44.0832 62.3362 45.0191 61.7951 45.9551L63.5267 46.956C64.2275 45.7435 64.5923 44.4653 64.5923 43.1343H62.5923ZM61.8669 40.7826C62.3362 41.3957 62.5923 42.1605 62.5923 43.1343H64.5923C64.5923 41.7843 64.2275 40.5761 63.4549 39.5669L61.8669 40.7826ZM59.7519 39.225C60.6743 39.6049 61.3664 40.1288 61.8669 40.7826L63.4549 39.5669C62.7135 38.5984 61.7202 37.8727 60.5136 37.3758L59.7519 39.225ZM56.4916 38.51C57.7443 38.5709 58.8177 38.8128 59.7287 39.2151L60.5368 37.3857C59.3631 36.8673 58.0415 36.583 56.5887 36.5124L56.4916 38.51ZM55.5401 37.4454V37.5112H57.5401V37.4454H55.5401ZM59.1354 34.8239C58.3574 35.5161 57.3867 36.0803 56.2031 36.5039L56.8771 38.3869C58.2661 37.8898 59.4686 37.2044 60.4648 36.3182L59.1354 34.8239ZM60.1307 32.3814C60.1307 33.4732 59.781 34.2496 59.1354 34.8239L60.4648 36.3182C61.5934 35.3141 62.1307 33.964 62.1307 32.3814H60.1307ZM58.9131 30.0665C59.7524 30.6761 60.1307 31.4223 60.1307 32.3814H62.1307C62.1307 30.7536 61.4223 29.4171 60.0883 28.4483L58.9131 30.0665ZM54.3446 29.0407C56.6212 29.0407 58.0752 29.4412 58.9025 30.0588L60.0989 28.456C58.7529 27.4514 56.7695 27.0407 54.3446 27.0407V29.0407ZM52.3188 29.0729C52.9024 29.0516 53.5773 29.0407 54.3446 29.0407V27.0407C53.5596 27.0407 52.8595 27.0518 52.2456 27.0743L52.3188 29.0729ZM50.4497 29.1702C51.1302 29.1268 51.7536 29.0944 52.3202 29.0729L52.2442 27.0743C51.6576 27.0966 51.0169 27.13 50.3224 27.1743L50.4497 29.1702ZM47.7249 29.2051C48.8168 29.2051 49.7156 29.1941 50.4179 29.1717L50.3542 27.1728C49.6816 27.1942 48.8062 27.2051 47.7249 27.2051V29.2051ZM44.5647 29.2051H47.7249V27.2051H44.5647V29.2051ZM45.5647 28.9615V28.2051H43.5647V28.9615H45.5647ZM46.8005 28.188C46.2483 28.0515 45.4947 27.9841 44.5894 27.9618L44.54 29.9612C45.4088 29.9826 45.9858 30.0468 46.3207 30.1296L46.8005 28.188ZM48.3732 29.4446C48.0682 28.7555 47.48 28.3559 46.8005 28.188L46.3207 30.1296C46.4358 30.158 46.4886 30.1913 46.5083 30.2064C46.5233 30.218 46.5332 30.2289 46.5443 30.254L48.3732 29.4446ZM48.7249 31.4935C48.7249 30.7004 48.6419 29.9362 48.3388 29.3745L46.5787 30.3241C46.6304 30.4201 46.7249 30.752 46.7249 31.4935H48.7249ZM48.7249 46.7844V31.4935H46.7249V46.7844H48.7249ZM48.4603 48.7832C48.6606 48.2552 48.7249 47.5554 48.7249 46.7844H46.7249C46.7249 47.504 46.6561 47.9004 46.5903 48.0738L48.4603 48.7832ZM47.0886 50.0745C47.7414 49.8729 48.2192 49.4187 48.4603 48.7832L46.5903 48.0738C46.5802 48.1005 46.5712 48.1164 46.5658 48.1246C46.5607 48.1326 46.5574 48.1358 46.5562 48.1369C46.5551 48.138 46.5522 48.1406 46.5452 48.1446C46.5379 48.1487 46.5233 48.1559 46.4983 48.1636L47.0886 50.0745ZM45.4329 50.3157C46.0691 50.2924 46.6431 50.2215 47.1064 50.0689L46.4805 48.1693C46.2785 48.2359 45.9211 48.2965 45.3597 48.3171L45.4329 50.3157ZM51.1172 38.731C51.3333 38.5831 51.4675 38.5391 51.5277 38.5283L51.1739 36.5598C50.7461 36.6367 50.3481 36.8339 49.9876 37.0805L51.1172 38.731ZM49.5524 31.4935V37.9058H51.5524V31.4935H49.5524ZM50.6877 28.7183C50.1937 29.0011 49.9145 29.4667 49.7612 29.9294C49.6092 30.3879 49.5524 30.9225 49.5524 31.4935H51.5524C51.5524 31.0341 51.6009 30.7357 51.6596 30.5585C51.717 30.3854 51.7538 30.4126 51.6812 30.4542L50.6877 28.7183ZM53.2469 28.2245C52.2572 28.2245 51.3468 28.3412 50.6877 28.7183L51.6812 30.4542C51.8648 30.349 52.3293 30.2245 53.2469 30.2245V28.2245ZM55.7419 28.5151C54.9314 28.3209 54.0991 28.2245 53.2469 28.2245V30.2245C53.947 30.2245 54.6227 30.3035 55.2759 30.4601L55.7419 28.5151ZM58.0571 29.8116C57.4273 29.1607 56.6447 28.7315 55.7419 28.5151L55.2759 30.4601C55.8368 30.5945 56.2738 30.8448 56.6198 31.2024L58.0571 29.8116ZM59.0703 32.8088C59.0703 31.6395 58.7948 30.574 58.0571 29.8116L56.6198 31.2024C56.8579 31.4484 57.0703 31.9174 57.0703 32.8088H59.0703ZM58.3958 35.5591C58.8679 34.7716 59.0703 33.8352 59.0703 32.8088H57.0703C57.0703 33.5801 56.9179 34.1345 56.6804 34.5308L58.3958 35.5591ZM56.6363 37.2618C57.3589 36.8497 57.9455 36.2827 58.387 35.5734L56.6891 34.5164C56.421 34.9471 56.0761 35.2789 55.6455 35.5245L56.6363 37.2618ZM54.4959 38.0926C55.2769 37.9183 55.9979 37.6406 56.6511 37.2532L55.6308 35.5331C55.1751 35.8033 54.6543 36.008 54.0602 36.1406L54.4959 38.0926ZM52.3806 38.4077C53.0784 38.3387 53.7756 38.2353 54.472 38.0976L54.0841 36.1356C53.45 36.261 52.8166 36.3548 52.1838 36.4174L52.3806 38.4077ZM51.5907 38.5149C51.7841 38.4671 52.0325 38.4299 52.3439 38.4106L52.2205 36.4144C51.8222 36.4391 51.4497 36.4895 51.1108 36.5733L51.5907 38.5149ZM54.4777 49.8889C56.153 49.8889 57.5945 49.589 58.6871 48.8689L57.5866 47.1989C56.9494 47.6188 55.9515 47.8889 54.4777 47.8889V49.8889ZM51.899 49.746C52.5496 49.8449 53.4176 49.8889 54.4777 49.8889V47.8889C53.4531 47.8889 52.7023 47.8452 52.1997 47.7687L51.899 49.746ZM50.0958 48.8125C50.5406 49.3841 51.222 49.639 51.8931 49.7451L52.2056 47.7696C51.9969 47.7366 51.8599 47.691 51.7753 47.6504C51.7343 47.6307 51.7088 47.6137 51.6941 47.6024C51.6798 47.5914 51.6748 47.5849 51.6743 47.5842L50.0958 48.8125ZM49.5524 46.7844C49.5524 47.5014 49.671 48.2256 50.0745 48.784L51.6956 47.6127C51.6556 47.5573 51.5524 47.3388 51.5524 46.7844H49.5524ZM49.5524 40.4378V46.7844H51.5524V40.4378H49.5524ZM50.8096 38.045C49.8874 38.5422 49.5524 39.4705 49.5524 40.4378H51.5524C51.5524 39.9144 51.7053 39.8343 51.7588 39.8054L50.8096 38.045ZM53.6793 37.4977C52.5456 37.4977 51.5354 37.6393 50.7965 38.0522L51.772 39.7982C52.0532 39.641 52.6397 39.4977 53.6793 39.4977V37.4977ZM57.4457 38.0392C56.3089 37.6727 55.0496 37.4977 53.6793 37.4977V39.4977C54.8816 39.4977 55.9286 39.6515 56.8321 39.9427L57.4457 38.0392ZM60.3709 39.8989C59.6261 38.999 58.6239 38.3858 57.4214 38.0317L56.8564 39.9502C57.7385 40.21 58.3774 40.6271 58.8301 41.1741L60.3709 39.8989ZM61.5319 43.3973C61.5319 42.0194 61.1742 40.8056 60.3493 39.8737L58.8517 41.1993C59.2687 41.6704 59.5319 42.3638 59.5319 43.3973H61.5319ZM60.9233 46.3127C61.3229 45.3497 61.5319 44.3758 61.5319 43.3973H59.5319C59.5319 44.085 59.3861 44.7991 59.0761 45.5461L60.9233 46.3127ZM58.6774 48.8752C59.7047 48.2152 60.474 47.3676 60.9197 46.3213L59.0797 45.5375C58.8157 46.1572 58.3431 46.7127 57.5963 47.1926L58.6774 48.8752Z" fill="#020B27" mask="url(#path-16-inside-1_58_75)"/>
</svg>
