<svg width="179" height="157" viewBox="0 0 179 157" fill="none" xmlns="http://www.w3.org/2000/svg" style="">
<path d="M29.045 63.1925C30.301 67.5885 36.3717 73.3975 39.25 75.7525C31.0075 75.7525 28.0581 79.0048 27.475 80.4625C26.69 82.425 25.905 85.565 23.9425 84.3875C21.98 83.21 21.98 80.855 25.5125 77.715C28.3385 75.203 33.2317 74.3133 35.325 74.1825C30.615 71.3565 29.1758 65.6783 29.045 63.1925Z" fill="white" class="ahHduREp_0"></path>
<path fill="white" stroke="white" d="M53.879999999999995,61.23A31.685,31.685 0,1,1 117.25,61.23A31.685,31.685 0,1,1 53.879999999999995,61.23" class="ahHduREp_1"></path>
<path stroke="white" stroke-width="2.5" d="M49.919999999999995,61.23A35.645,35.645 0,1,1 121.21000000000001,61.23A35.645,35.645 0,1,1 49.919999999999995,61.23" class="ahHduREp_2"></path>
<path d="M62.4075 16.0925C65.2335 15.4645 67.51 18.1858 68.295 19.625C68.4258 18.4475 68.138 15.7 65.94 14.13C63.1925 12.1675 58.875 14.13 57.6975 16.8775C56.451 19.7861 56.52 24.335 61.23 27.0825C65.94 29.83 71.435 28.26 75.7525 25.5125C80.07 22.765 79.285 18.4475 79.285 16.8775C79.285 15.3075 76.93 13.345 75.36 14.5225C73.79 15.7 74.575 17.6625 75.7525 18.055C76.93 18.4475 77.715 16.8775 77.715 19.625C77.715 22.3725 74.9675 23.9425 71.435 25.12C68.609 26.062 66.5942 24.7275 65.94 23.9425C66.254 24.8845 67.1175 25.905 67.51 26.2975C65.155 26.2975 62.4075 25.5125 60.445 23.9425C58.4825 22.3725 58.875 16.8775 62.4075 16.0925Z" fill="white" class="ahHduREp_3"></path>
<path d="M107.729 16.0532C104.947 15.4363 102.706 18.1097 101.934 19.5235C101.805 18.3667 102.088 15.6676 104.252 14.1253C106.957 12.1974 111.207 14.1253 112.366 16.8244C113.593 19.6817 113.525 24.1505 108.888 26.8496C104.252 29.5487 98.8425 28.0064 94.5924 25.3073C90.3422 22.6082 91.115 18.3667 91.115 16.8244C91.115 15.282 93.4332 13.3541 94.9788 14.5109C96.5243 15.6676 95.7515 17.5956 94.5924 17.9811C93.4332 18.3667 92.6605 16.8244 92.6605 19.5235C92.6605 22.2226 95.3651 23.7649 98.8425 24.9217C101.624 25.8471 103.608 24.5361 104.252 23.7649C103.943 24.6903 103.093 25.6929 102.706 26.0784C105.025 26.0784 107.729 25.3073 109.661 23.7649C111.593 22.2226 111.207 16.8244 107.729 16.0532Z" fill="white" class="ahHduREp_4"></path>
<path d="M43.6178 110.264C48.7842 111.433 52.9461 106.367 54.3812 103.688C54.6204 105.88 54.0942 110.994 50.0758 113.917C45.0529 117.569 37.1597 113.917 35.007 108.802C32.7281 103.389 32.8543 94.9214 41.4651 89.8073C50.0758 84.6932 60.1217 87.6155 68.0149 92.7296C75.9081 97.8437 74.4729 105.88 74.4729 108.802C74.4729 111.725 70.1676 115.378 67.2973 113.186C64.4271 110.994 65.8622 107.341 68.0149 106.611C70.1676 105.88 71.6027 108.802 71.6027 103.688C71.6027 98.5743 66.5798 95.6519 60.1217 93.4602C54.9553 91.7068 51.2718 94.1908 50.0758 95.6519C50.6499 93.8985 52.2285 91.999 52.9461 91.2684C48.6407 91.2684 43.6178 92.7296 40.03 95.6519C36.4421 98.5743 37.1597 108.802 43.6178 110.264Z" fill="white" class="ahHduREp_5"></path>
<path d="M126.727 110.406C121.561 111.543 117.399 106.618 115.964 104.014C115.725 106.144 116.251 111.116 120.269 113.958C125.292 117.509 133.185 113.958 135.338 108.986C137.617 103.722 137.491 95.4901 128.88 90.5181C120.269 85.546 110.223 88.3872 102.33 93.3592C94.4369 98.3312 95.872 106.144 95.872 108.986C95.872 111.827 100.177 115.378 103.048 113.247C105.918 111.116 104.483 107.565 102.33 106.855C100.177 106.144 98.7423 108.986 98.7423 104.014C98.7423 99.0416 103.765 96.2004 110.223 94.0695C115.39 92.3648 119.073 94.7798 120.269 96.2004C119.695 94.4957 118.116 92.6489 117.399 91.9386C121.704 91.9386 126.727 93.3592 130.315 96.2004C133.903 99.0415 133.185 108.986 126.727 110.406Z" fill="white" class="ahHduREp_6"></path>
<path d="M45.1375 73.005C48.2775 77.3225 52.0717 83.4717 53.38 86.7425C46.7075 82.0325 44.745 82.425 40.4275 82.0325C37.1627 81.7357 32.0542 85.3033 29.83 87.5275C30.615 81.64 35.7175 79.285 38.8575 78.8925C41.3695 78.5785 45.6608 79.5467 47.4925 80.07C46.7075 79.4158 44.1955 77.1655 40.4275 73.3975C35.7175 68.6875 31.7925 56.9125 32.5775 47.1C33.3625 37.2875 36.5025 30.615 41.2125 28.6525C45.9225 26.69 50.24 28.26 52.2025 32.5775C54.165 36.895 48.2775 45.1375 48.67 41.2125C48.984 38.0725 47.2308 35.9792 46.315 35.325C46.9692 36.5025 47.8065 38.8575 45.9225 38.8575C43.5675 38.8575 39.25 40.035 37.68 45.9225C36.424 50.6325 37.4183 57.8283 38.0725 60.8375C38.0725 56.52 38.8575 55.3425 40.035 53.7725C41.2125 52.2025 43.96 52.595 44.3525 54.165C44.745 55.735 43.5675 56.52 41.9975 56.1275C40.4275 55.735 39.6425 59.2675 39.6425 61.23C39.6425 63.1925 41.4266 67.9025 45.1375 73.005Z" fill="white" class="ahHduREp_7"></path>
<path d="M140.91 63.585C139.606 68.0892 133.3 74.0412 130.31 76.4542C138.872 76.4542 141.936 79.7865 142.541 81.2801C143.357 83.2909 144.172 86.5082 146.211 85.3017C148.249 84.0952 148.249 81.6823 144.58 78.465C141.644 75.8911 136.562 74.9796 134.387 74.8455C139.28 71.95 140.775 66.132 140.91 63.585Z" fill="white" class="ahHduREp_8"></path>
<path d="M123.912 73.622C120.668 78.1061 116.747 84.4926 115.395 87.8897C122.29 82.9979 124.318 83.4056 128.779 82.9979C132.153 82.6897 137.432 86.395 139.73 88.705C138.919 82.5903 133.646 80.1444 130.402 79.7367C127.806 79.4106 123.371 80.4161 121.479 80.9597C122.29 80.2802 124.886 77.9431 128.779 74.0296C133.646 69.1378 137.702 56.9084 136.891 46.7171C136.08 36.5259 132.835 29.5959 127.968 27.5576C123.101 25.5194 118.64 27.15 116.612 31.6341C114.584 36.1182 120.668 44.6789 120.262 40.6024C119.938 37.3412 121.749 35.1671 122.696 34.4876C122.02 35.7106 121.154 38.1565 123.101 38.1565C125.535 38.1565 129.996 39.3794 131.618 45.4942C132.916 50.386 131.889 57.8595 131.213 60.9849C131.213 56.5007 130.402 55.2778 129.185 53.6472C127.968 52.0166 125.129 52.4242 124.723 54.0548C124.318 55.6854 125.535 56.5007 127.157 56.0931C128.779 55.6854 129.59 59.3543 129.59 61.3925C129.59 63.4308 127.747 68.3225 123.912 73.622Z" fill="white" class="ahHduREp_9"></path>
<path d="M85.1725 24.335C82.6867 20.41 79.2065 10.048 85.1725 0C87.7892 5.1025 91.4525 17.113 85.1725 24.335Z" fill="white" class="ahHduREp_10"></path>
<path d="M85.1725 122.46C82.6867 118.535 79.2065 108.173 85.1725 98.125C87.7892 103.227 91.4525 115.238 85.1725 122.46Z" fill="white" class="ahHduREp_11"></path>
<path width="69.865" height="0.785" fill="white" stroke="white" stroke-width="0.785" d="M0.3925 121.283 L70.2575 121.283 L70.2575 122.068 L0.3925 122.068 Z" class="ahHduREp_12"></path>
<path width="177.41" height="0.785" fill="white" stroke="white" stroke-width="0.785" d="M0.3925 155.822 L177.8025 155.822 L177.8025 156.607 L0.3925 156.607 Z" class="ahHduREp_13"></path>
<path width="75.36" height="0.785" fill="white" stroke="white" stroke-width="0.785" d="M102.443 121.283 L177.803 121.283 L177.803 122.068 L102.443 122.068 Z" class="ahHduREp_14"></path>
<path d="M18.6811 149.654C17.8201 149.654 17.106 149.539 16.5389 149.31C15.9719 149.08 15.4888 148.778 15.0898 148.403C14.6908 148.028 14.3127 147.621 13.9557 147.184L7.46615 139.273C7.19313 138.94 6.98311 138.731 6.83609 138.648C6.71008 138.544 6.53157 138.481 6.30055 138.46V137.522C8.31672 137.689 9.89186 137.408 11.026 136.678C12.1601 135.949 12.7271 134.834 12.7271 133.333C12.7271 132.311 12.4961 131.54 12.034 131.019C11.572 130.477 10.9735 130.112 10.2384 129.925C9.50333 129.737 8.72626 129.643 7.90719 129.643C7.15112 129.643 6.58407 129.768 6.20604 130.019C5.84901 130.248 5.67049 130.842 5.67049 131.801V146.339C5.67049 147.048 5.744 147.569 5.89101 147.903C6.05903 148.236 6.35305 148.455 6.77309 148.559C7.19313 148.664 7.81268 148.726 8.63175 148.747V149.466H0.787568V148.747C1.35462 148.726 1.79566 148.664 2.11068 148.559C2.44671 148.455 2.67773 148.236 2.80374 147.903C2.92976 147.569 2.99276 147.048 2.99276 146.339V131.801C2.99276 131.071 2.90875 130.55 2.74074 130.237C2.59373 129.904 2.3102 129.685 1.89016 129.581C1.47013 129.477 0.840073 129.414 0 129.393V128.674H2.99276C4.44189 128.674 5.58649 128.653 6.42656 128.612C7.26663 128.549 8.0437 128.518 8.75776 128.518C11.152 128.518 12.9056 128.956 14.0187 129.831C15.1528 130.686 15.7199 131.78 15.7199 133.114C15.7199 134.49 15.1843 135.626 14.1132 136.522C13.0631 137.418 11.719 137.991 10.0809 138.242V138.304L16.6019 146.246C17.19 146.933 17.6625 147.465 18.0196 147.84C18.3976 148.195 18.7546 148.434 19.0907 148.559C19.4267 148.684 19.8257 148.747 20.2878 148.747V149.466C20.0147 149.549 19.7417 149.602 19.4687 149.622C19.1957 149.643 18.9331 149.654 18.6811 149.654Z" fill="white" class="ahHduREp_15"></path>
<path d="M31.5795 128.205C33.0077 128.205 34.3518 128.455 35.6119 128.956C36.872 129.456 37.9956 130.185 38.9827 131.144C39.9698 132.082 40.7363 133.218 41.2824 134.552C41.8494 135.886 42.1329 137.377 42.1329 139.023C42.1329 140.67 41.8494 142.16 41.2824 143.494C40.7363 144.828 39.9698 145.975 38.9827 146.933C38.0166 147.892 36.893 148.632 35.6119 149.153C34.3308 149.674 32.9762 149.935 31.548 149.935C30.1409 149.935 28.7968 149.685 27.5157 149.185C26.2556 148.684 25.132 147.965 24.1449 147.027C23.1788 146.068 22.4122 144.922 21.8452 143.588C21.2991 142.254 21.0261 140.764 21.0261 139.117C21.0261 137.47 21.2991 135.98 21.8452 134.646C22.4122 133.312 23.1788 132.166 24.1449 131.207C25.132 130.248 26.2556 129.508 27.5157 128.987C28.7968 128.466 30.1514 128.205 31.5795 128.205ZM32.0206 148.684C33.2807 148.684 34.4358 148.34 35.4859 147.653C36.557 146.965 37.418 145.954 38.0691 144.62C38.7202 143.265 39.0457 141.597 39.0457 139.617C39.0457 137.449 38.6676 135.615 37.9116 134.114C37.1555 132.593 36.1789 131.436 34.9818 130.644C33.7847 129.852 32.5036 129.456 31.1385 129.456C29.8784 129.456 28.7128 129.8 27.6417 130.488C26.5706 131.175 25.7095 132.197 25.0585 133.552C24.4074 134.886 24.0819 136.543 24.0819 138.523C24.0819 140.691 24.4599 142.535 25.216 144.057C25.972 145.558 26.9591 146.704 28.1772 147.496C29.3953 148.288 30.6765 148.684 32.0206 148.684Z" fill="white" class="ahHduREp_16"></path>
<path d="M54.8446 128.674H60.7041V129.393C60.242 129.435 59.801 129.643 59.3809 130.019C58.9819 130.373 58.5304 130.967 58.0263 131.801L54.0255 138.492C53.8155 138.825 53.6579 139.127 53.5529 139.398C53.4689 139.669 53.4269 140.076 53.4269 140.618V146.339C53.4269 147.048 53.5004 147.569 53.6474 147.903C53.7945 148.236 54.078 148.455 54.498 148.559C54.9391 148.664 55.5691 148.726 56.3882 148.747V149.466H48.544V148.747C49.111 148.726 49.5521 148.664 49.8671 148.559C50.2031 148.455 50.4342 148.236 50.5602 147.903C50.6862 147.569 50.7492 147.048 50.7492 146.339V140.618C50.7492 140.076 50.7072 139.669 50.6232 139.398C50.5392 139.127 50.4027 138.825 50.2136 138.492L46.4333 131.801C46.0343 131.092 45.6983 130.571 45.4252 130.237C45.1522 129.904 44.8687 129.685 44.5747 129.581C44.2806 129.477 43.9026 129.414 43.4406 129.393V128.674H50.4657V129.393C49.5416 129.435 49.006 129.602 48.859 129.894C48.712 130.164 48.922 130.8 49.4891 131.801L52.8284 137.835H52.8914L56.4827 131.801C56.9657 130.967 57.0602 130.373 56.7662 130.019C56.4722 129.643 55.8316 129.435 54.8446 129.393V128.674Z" fill="white" class="ahHduREp_17"></path>
<path d="M76.6664 146.339C76.9184 147.069 77.1599 147.6 77.3909 147.934C77.6219 148.247 77.895 148.455 78.21 148.559C78.546 148.643 78.9871 148.705 79.5331 148.747V149.466H72.0039V148.747C72.718 148.705 73.2431 148.632 73.5791 148.528C73.9361 148.424 74.1356 148.205 74.1776 147.871C74.2196 147.538 74.1146 147.027 73.8626 146.339L72.0669 140.962C71.9619 141.066 71.8044 141.139 71.5944 141.181C71.3844 141.201 71.1639 141.212 70.9328 141.212H66.806C66.3439 141.212 65.9974 141.264 65.7664 141.368C65.5354 141.472 65.3359 141.754 65.1679 142.212L63.6872 146.339C63.4142 147.131 63.4142 147.726 63.6872 148.122C63.9812 148.497 64.8003 148.705 66.1444 148.747V149.466H59.6234V148.747C60.2954 148.705 60.8205 148.497 61.1985 148.122C61.5975 147.726 61.9441 147.131 62.2381 146.339L67.8141 131.144C68.0241 130.602 68.2236 130.071 68.4126 129.55C68.6016 129.028 68.7697 128.497 68.9167 127.955H70.4603C70.6073 128.497 70.7648 129.028 70.9328 129.55C71.1219 130.071 71.3214 130.602 71.5314 131.144L76.6664 146.339ZM70.9959 140.086C71.2689 140.086 71.4579 140.055 71.5629 139.992C71.6679 139.909 71.6679 139.742 71.5629 139.492L68.9797 131.895H68.9167L65.8924 140.18C65.9974 140.138 66.1234 140.117 66.2704 140.117C66.4175 140.097 66.5855 140.086 66.7745 140.086H70.9959Z" fill="white" class="ahHduREp_18"></path>
<path d="M81.6364 149.466V148.747C82.2035 148.726 82.6445 148.664 82.9595 148.559C83.2745 148.455 83.4951 148.236 83.6211 147.903C83.7681 147.569 83.8416 147.048 83.8416 146.339V131.801C83.8416 131.071 83.7576 130.55 83.5896 130.237C83.4426 129.904 83.159 129.685 82.739 129.581C82.319 129.477 81.6889 129.414 80.8488 129.393V128.674H88.7245V129.393C88.1575 129.414 87.7164 129.477 87.4014 129.581C87.0864 129.685 86.8554 129.904 86.7083 130.237C86.5823 130.55 86.5193 131.071 86.5193 131.801V146.339C86.5193 147.236 86.6768 147.799 86.9919 148.028C87.3279 148.236 87.9685 148.34 88.9135 148.34H91.7803C92.8304 148.34 93.6389 148.174 94.206 147.84C94.794 147.486 95.2141 147.027 95.4661 146.464C95.7391 145.881 95.9071 145.256 95.9701 144.589H96.6947L96.4427 149.466H81.6364Z" fill="white" class="ahHduREp_19"></path>
<path d="M99.3875 149.466V148.747C99.9545 148.726 100.396 148.664 100.711 148.559C101.047 148.455 101.278 148.236 101.404 147.903C101.53 147.569 101.593 147.048 101.593 146.339V131.801C101.593 131.071 101.509 130.55 101.341 130.237C101.194 129.904 100.91 129.685 100.49 129.581C100.07 129.477 99.44 129.414 98.5999 129.393V128.674H101.593C102.622 128.674 103.462 128.664 104.113 128.643C104.764 128.601 105.362 128.57 105.909 128.549C106.476 128.528 107.127 128.518 107.862 128.518C110.088 128.518 111.716 128.903 112.745 129.675C113.774 130.425 114.288 131.415 114.288 132.645C114.288 133.916 113.868 134.927 113.028 135.678C112.188 136.428 111.159 137.022 109.941 137.46V137.522C111.222 137.585 112.356 137.835 113.343 138.273C114.351 138.69 115.149 139.284 115.737 140.055C116.325 140.826 116.619 141.764 116.619 142.869C116.619 143.953 116.325 145.005 115.737 146.027C115.17 147.027 114.267 147.851 113.028 148.497C111.81 149.143 110.214 149.466 108.24 149.466H99.3875ZM104.27 137.898C104.543 137.71 104.795 137.595 105.026 137.554C105.278 137.491 105.572 137.449 105.909 137.429C106.539 137.366 107.169 137.272 107.799 137.147C108.45 137.001 109.038 136.772 109.563 136.459C110.109 136.147 110.55 135.719 110.886 135.177C111.222 134.615 111.39 133.906 111.39 133.051C111.39 132.072 111.159 131.342 110.697 130.863C110.235 130.383 109.657 130.06 108.964 129.894C108.271 129.727 107.557 129.643 106.822 129.643C105.919 129.643 105.268 129.758 104.869 129.987C104.47 130.217 104.27 130.821 104.27 131.801V137.898ZM107.988 148.34C109.479 148.34 110.634 148.069 111.453 147.528C112.293 146.986 112.881 146.319 113.217 145.527C113.553 144.714 113.721 143.911 113.721 143.119C113.721 141.973 113.427 141.066 112.839 140.399C112.272 139.711 111.495 139.221 110.508 138.929C109.542 138.617 108.45 138.46 107.232 138.46C106.203 138.46 105.446 138.596 104.963 138.867C104.501 139.117 104.27 139.596 104.27 140.305V146.339C104.27 146.944 104.375 147.392 104.585 147.684C104.795 147.955 105.163 148.132 105.688 148.215C106.234 148.299 107.001 148.34 107.988 148.34Z" fill="white" class="ahHduREp_20"></path>
<path d="M120.276 149.466V148.747C120.844 148.726 121.285 148.664 121.6 148.559C121.915 148.455 122.135 148.236 122.261 147.903C122.408 147.569 122.482 147.048 122.482 146.339V131.801C122.482 131.071 122.398 130.55 122.23 130.237C122.083 129.904 121.799 129.685 121.379 129.581C120.959 129.477 120.329 129.414 119.489 129.393V128.674H127.365V129.393C126.798 129.414 126.357 129.477 126.041 129.581C125.726 129.685 125.495 129.904 125.348 130.237C125.222 130.55 125.159 131.071 125.159 131.801V146.339C125.159 147.236 125.317 147.799 125.632 148.028C125.968 148.236 126.609 148.34 127.554 148.34H130.42C131.47 148.34 132.279 148.174 132.846 147.84C133.434 147.486 133.854 147.027 134.106 146.464C134.379 145.881 134.547 145.256 134.61 144.589H135.335L135.083 149.466H120.276Z" fill="white" class="ahHduREp_21"></path>
<path d="M144.6 149.935C142.794 149.935 141.429 149.445 140.505 148.466C139.602 147.465 139.15 146.11 139.15 144.401V131.801C139.15 131.071 139.077 130.55 138.93 130.237C138.783 129.904 138.51 129.685 138.11 129.581C137.732 129.477 137.176 129.414 136.441 129.393V128.674H144.033V129.393C143.466 129.414 143.025 129.477 142.71 129.581C142.395 129.685 142.164 129.904 142.017 130.237C141.891 130.55 141.828 131.071 141.828 131.801V143.682C141.828 144.891 142.08 145.902 142.584 146.715C143.109 147.507 144.043 147.903 145.388 147.903C146.375 147.903 147.309 147.684 148.191 147.246C149.073 146.808 149.85 146.204 150.523 145.433C151.216 144.641 151.751 143.734 152.129 142.713C152.528 141.691 152.728 140.586 152.728 139.398V131.801C152.728 131.071 152.654 130.55 152.507 130.237C152.36 129.904 152.066 129.685 151.625 129.581C151.205 129.477 150.586 129.414 149.766 129.393V128.674H157.453V129.393C156.886 129.414 156.445 129.477 156.13 129.581C155.815 129.685 155.584 129.904 155.437 130.237C155.311 130.55 155.248 131.071 155.248 131.801V146.371C155.248 147.079 155.311 147.6 155.437 147.934C155.584 148.247 155.826 148.455 156.162 148.559C156.519 148.664 157.002 148.726 157.611 148.747V149.466H153.137C153.011 149.133 152.917 148.736 152.854 148.278C152.791 147.799 152.759 147.152 152.759 146.339V143.682H152.696C151.877 145.641 150.796 147.173 149.451 148.278C148.128 149.383 146.511 149.935 144.6 149.935Z" fill="white" class="ahHduREp_22"></path>
<path d="M161.593 149.466V148.747C162.16 148.726 162.601 148.664 162.916 148.559C163.231 148.455 163.452 148.236 163.578 147.903C163.725 147.569 163.798 147.048 163.798 146.339V131.801C163.798 131.071 163.714 130.55 163.546 130.237C163.399 129.904 163.116 129.685 162.696 129.581C162.276 129.477 161.646 129.414 160.805 129.393V128.674H175.801V133.051H175.076C175.055 132.384 174.95 131.811 174.761 131.332C174.572 130.831 174.226 130.456 173.722 130.206C173.218 129.935 172.472 129.8 171.485 129.8H167.862C167.421 129.8 167.075 129.904 166.823 130.112C166.591 130.321 166.476 130.884 166.476 131.801V137.679C166.644 137.554 166.844 137.47 167.075 137.429C167.327 137.387 167.621 137.366 167.957 137.366H172.398C173.638 137.366 174.289 136.678 174.352 135.303H175.076V140.618H174.352C174.331 139.763 174.184 139.2 173.911 138.929C173.638 138.638 173.134 138.492 172.398 138.492H168.02C167.453 138.492 167.054 138.585 166.823 138.773C166.591 138.961 166.476 139.325 166.476 139.867V146.339C166.476 147.236 166.634 147.799 166.949 148.028C167.285 148.236 167.925 148.34 168.87 148.34H173.249C174.278 148.34 175.087 148.174 175.675 147.84C176.263 147.486 176.693 147.027 176.966 146.464C177.239 145.881 177.407 145.256 177.47 144.589H178.195L177.943 149.466H161.593Z" fill="white" class="ahHduREp_23"></path>
<path d="M70.6688 78.5V79H71.1688H85.823C89.1388 79 91.8694 78.4606 93.9821 77.3447C96.0986 76.245 97.6729 74.827 98.6685 73.0781C99.6814 71.3253 100.195 69.5047 100.195 67.6225C100.195 65.7069 99.6811 64.0495 98.6318 62.6789C97.5993 61.3301 96.2048 60.3009 94.4676 59.5844C93.2622 59.0527 91.9363 58.6857 90.4929 58.4798C91.8492 57.8396 93.0469 57.0601 94.0822 56.139C95.5936 54.7944 96.3359 52.9841 96.3359 50.7649C96.3359 48.5711 95.4025 46.7917 93.577 45.4648C91.7437 44.0978 88.9178 43.46 85.1972 43.46C83.9759 43.46 82.8919 43.4773 81.9456 43.5119L81.9449 43.5119C81.0382 43.5464 80.0456 43.598 78.9674 43.6667C77.8982 43.7007 76.516 43.7178 74.8193 43.7178H69.865H69.365V44.2178V45.4035V45.8913L69.8526 45.9033C71.2342 45.9375 72.2331 46.0398 72.8741 46.1982C73.4514 46.3409 73.7764 46.617 73.9449 46.9978L73.9528 47.0156L73.962 47.0328C74.1774 47.4319 74.3193 48.183 74.3193 49.373V73.3448C74.3193 74.5005 74.2139 75.2838 74.0389 75.7451C73.8843 76.1526 73.6188 76.4015 73.2115 76.5273L73.2115 76.5272L73.2026 76.5301C72.7464 76.6804 72.0704 76.781 71.1505 76.8147L70.6688 76.8323V77.3143V78.5ZM80.3988 58.3695C80.1849 58.4094 79.9692 58.4781 79.7521 58.5723V49.373C79.7521 48.5933 79.8326 47.9993 79.9744 47.5713C80.1156 47.1453 80.3027 46.9249 80.4913 46.8169C81.033 46.5069 81.9993 46.3159 83.4762 46.3159C84.6551 46.3159 85.798 46.449 86.9059 46.7146C87.9678 46.969 88.8375 47.457 89.5314 48.1741C90.1714 48.8355 90.538 49.8893 90.538 51.4351C90.538 52.7785 90.2732 53.8503 89.7769 54.68C89.2643 55.5022 88.5954 56.1467 87.7656 56.62L87.7656 56.6199L87.7583 56.6242C86.94 57.1096 86.0186 57.4689 84.9899 57.6991C83.9675 57.9011 82.9454 58.0526 81.9237 58.1539C81.3559 58.1894 80.8463 58.2601 80.3988 58.3695ZM90.8721 74.8831L90.872 74.8831L90.8672 74.8863C89.6252 75.7048 87.8239 76.1441 85.4058 76.1441C83.7815 76.1441 82.5422 76.0755 81.6753 75.9438C80.8716 75.8165 80.4112 75.5617 80.1736 75.2614C79.9197 74.9049 79.7521 74.2943 79.7521 73.3448V63.3952C79.7521 62.3377 80.089 61.7592 80.6367 61.4639L80.6367 61.464L80.6433 61.4603C81.3285 61.0775 82.4742 60.8536 84.1542 60.8536C86.1287 60.8536 87.8835 61.1061 89.4244 61.6028L89.4244 61.603L89.4366 61.6066C90.9905 62.0641 92.1861 62.8227 93.0518 63.8687L93.0571 63.8751L93.0626 63.8813C93.9341 64.8659 94.3972 66.2308 94.3972 68.0349C94.3972 69.2675 94.1351 70.525 93.6019 71.8106C93.0909 73.009 92.1919 74.0351 90.8721 74.8831Z" fill="#020B27" stroke="white" class="ahHduREp_24"></path>
<style data-made-with="vivus-instant">.ahHduREp_0{stroke-dasharray:68 70;stroke-dashoffset:69;animation:ahHduREp_draw 2000ms ease-out 0ms forwards;}.ahHduREp_1{stroke-dasharray:200 202;stroke-dashoffset:201;animation:ahHduREp_draw 2000ms ease-out 41ms forwards;}.ahHduREp_2{stroke-dasharray:224 226;stroke-dashoffset:225;animation:ahHduREp_draw 2000ms ease-out 83ms forwards;}.ahHduREp_3{stroke-dasharray:109 111;stroke-dashoffset:110;animation:ahHduREp_draw 2000ms ease-out 125ms forwards;}.ahHduREp_4{stroke-dasharray:107 109;stroke-dashoffset:108;animation:ahHduREp_draw 2000ms ease-out 166ms forwards;}.ahHduREp_5{stroke-dasharray:201 203;stroke-dashoffset:202;animation:ahHduREp_draw 2000ms ease-out 208ms forwards;}.ahHduREp_6{stroke-dasharray:198 200;stroke-dashoffset:199;animation:ahHduREp_draw 2000ms ease-out 250ms forwards;}.ahHduREp_7{stroke-dasharray:223 225;stroke-dashoffset:224;animation:ahHduREp_draw 2000ms ease-out 291ms forwards;}.ahHduREp_8{stroke-dasharray:70 72;stroke-dashoffset:71;animation:ahHduREp_draw 2000ms ease-out 333ms forwards;}.ahHduREp_9{stroke-dasharray:231 233;stroke-dashoffset:232;animation:ahHduREp_draw 2000ms ease-out 375ms forwards;}.ahHduREp_10{stroke-dasharray:52 54;stroke-dashoffset:53;animation:ahHduREp_draw 2000ms ease-out 416ms forwards;}.ahHduREp_11{stroke-dasharray:52 54;stroke-dashoffset:53;animation:ahHduREp_draw 2000ms ease-out 458ms forwards;}.ahHduREp_12{stroke-dasharray:142 144;stroke-dashoffset:143;animation:ahHduREp_draw 2000ms ease-out 500ms forwards;}.ahHduREp_13{stroke-dasharray:357 359;stroke-dashoffset:358;animation:ahHduREp_draw 2000ms ease-out 541ms forwards;}.ahHduREp_14{stroke-dasharray:153 155;stroke-dashoffset:154;animation:ahHduREp_draw 2000ms ease-out 583ms forwards;}.ahHduREp_15{stroke-dasharray:134 136;stroke-dashoffset:135;animation:ahHduREp_draw 2000ms ease-out 625ms forwards;}.ahHduREp_16{stroke-dasharray:123 125;stroke-dashoffset:124;animation:ahHduREp_draw 2000ms ease-out 666ms forwards;}.ahHduREp_17{stroke-dasharray:95 97;stroke-dashoffset:96;animation:ahHduREp_draw 2000ms ease-out 708ms forwards;}.ahHduREp_18{stroke-dasharray:115 117;stroke-dashoffset:116;animation:ahHduREp_draw 2000ms ease-out 750ms forwards;}.ahHduREp_19{stroke-dasharray:85 87;stroke-dashoffset:86;animation:ahHduREp_draw 2000ms ease-out 791ms forwards;}.ahHduREp_20{stroke-dasharray:139 141;stroke-dashoffset:140;animation:ahHduREp_draw 2000ms ease-out 833ms forwards;}.ahHduREp_21{stroke-dasharray:85 87;stroke-dashoffset:86;animation:ahHduREp_draw 2000ms ease-out 875ms forwards;}.ahHduREp_22{stroke-dasharray:136 138;stroke-dashoffset:137;animation:ahHduREp_draw 2000ms ease-out 916ms forwards;}.ahHduREp_23{stroke-dasharray:132 134;stroke-dashoffset:133;animation:ahHduREp_draw 2000ms ease-out 958ms forwards;}.ahHduREp_24{stroke-dasharray:225 227;stroke-dashoffset:226;animation:ahHduREp_draw 2000ms ease-out 1000ms forwards;}@keyframes ahHduREp_draw{100%{stroke-dashoffset:0;}}@keyframes ahHduREp_fade{0%{stroke-opacity:1;}94.44444444444444%{stroke-opacity:1;}100%{stroke-opacity:0;}}</style></svg>
