<svg width="16" height="14" viewBox="0 0 16 14" fill="none" xmlns="http://www.w3.org/2000/svg">
<path d="M2 2V3.26875C2.29375 3.1 2.63438 3 3 3H6.5C7.09688 3 7.63438 3.2625 8 3.67812C8.36563 3.2625 8.90312 3 9.5 3H13C13.3656 3 13.7063 3.09688 14 3.26875V2C14 1.44687 13.5531 1 13 1H3C2.44688 1 2 1.44687 2 2ZM15 5V6.5C15.6062 6.95625 16 7.68125 16 8.5V11.5V13.5C16 13.775 15.775 14 15.5 14C15.225 14 15 13.775 15 13.5V12H1V13.5C1 13.775 0.775 14 0.5 14C0.225 14 0 13.775 0 13.5V11.5V8.5C0 7.68125 0.39375 6.95625 1 6.5V5V2C1 0.896875 1.89688 0 3 0H13C14.1031 0 15 0.896875 15 2V5ZM14 6.05V5C14 4.44688 13.5531 4 13 4H9.5C8.94687 4 8.5 4.44688 8.5 5V6H13.5C13.6719 6 13.8375 6.01875 14 6.05ZM7.5 6V5C7.5 4.44688 7.05312 4 6.5 4H3C2.44688 4 2 4.44688 2 5V6.05C2.1625 6.01875 2.32812 6 2.5 6H7.5ZM15 8.5C15 7.67188 14.3281 7 13.5 7H2.5C1.67188 7 1 7.67188 1 8.5V11H15V8.5Z" fill="#020B27"/>
</svg>
