<svg width="25" height="16" viewBox="0 0 25 16" fill="none" xmlns="http://www.w3.org/2000/svg">
<path d="M23.5005 9.00007C24.0528 9.00007 24.5005 8.55236 24.5005 8.00008C24.5005 7.44779 24.0528 7.00007 23.5005 7.00007L23.5005 9.00007ZM0.292896 7.29288C-0.0976299 7.6834 -0.0976322 8.31657 0.292891 8.70709L6.65683 15.0711C7.04735 15.4616 7.68052 15.4616 8.07104 15.0711C8.46157 14.6806 8.46157 14.0474 8.07105 13.6569L2.41421 8L8.07109 2.34316C8.46161 1.95264 8.46162 1.31947 8.07109 0.928948C7.68057 0.538422 7.04741 0.53842 6.65688 0.928943L0.292896 7.29288ZM23.5005 7.00007L1 6.99999L0.999996 8.99999L23.5005 9.00007L23.5005 7.00007Z" fill="#C8C8C8"/>
</svg>
