<svg width="48" height="38" viewBox="0 0 48 38" fill="none" xmlns="http://www.w3.org/2000/svg">
<path d="M1.94379 0.250692C1.42635 -0.150061 0.668943 -0.0610045 0.256494 0.451068C-0.155955 0.963141 -0.0584669 1.7127 0.458969 2.12087L46.0533 37.7433C46.5708 38.1515 47.3282 38.0624 47.7406 37.5504C48.1531 37.0383 48.0631 36.2887 47.5457 35.8806L1.94379 0.250692ZM45.4084 19.9098C45.6559 19.3235 45.6559 18.6705 45.4084 18.0842C44.2911 15.4348 41.9438 11.5757 38.4343 8.3548C34.9097 5.10425 30.0578 2.3732 23.9986 2.3732C20.159 2.3732 16.7995 3.47155 13.9573 5.10425L16.0045 6.69984C18.3443 5.505 21.0139 4.74803 23.9986 4.74803C29.2779 4.74803 33.5749 7.12285 36.807 10.0914C40.0391 13.0599 42.1988 16.6222 43.1962 18.997C42.5063 20.6371 41.2539 22.8561 39.4841 25.0454L41.3664 26.5148C43.2862 24.14 44.6435 21.7355 45.4084 19.9098ZM6.63071 11.4792C4.71094 13.854 3.35361 16.2585 2.58871 18.0842C2.34124 18.6705 2.34124 19.3235 2.58871 19.9098C3.70607 22.5592 6.05328 26.4183 9.56285 29.6392C13.0874 32.8898 17.9393 35.6208 23.9986 35.6208C27.8381 35.6208 31.1977 34.5225 34.0398 32.8898L31.9926 31.2942C29.6529 32.489 26.9832 33.246 23.9986 33.246C18.7192 33.246 14.4222 30.8712 11.1901 27.9026C7.95804 24.9341 5.79831 21.3718 4.80093 18.997C5.49085 17.3569 6.74319 15.1379 8.51298 12.9486L6.63071 11.4792ZM23.9986 28.4963C25.2509 28.4963 26.4508 28.2588 27.5531 27.821L25.2359 26.0102C24.831 26.077 24.4185 26.1141 23.9986 26.1141C20.174 26.1141 17.0394 23.1604 16.8144 19.4274L14.4972 17.6166C14.4297 18.0619 14.3997 18.522 14.3997 18.9896C14.3997 24.2365 18.6967 28.4889 23.9986 28.4889V28.4963ZM33.5974 18.997C33.5974 13.7501 29.3004 9.49768 23.9986 9.49768C22.7462 9.49768 21.5464 9.73517 20.444 10.173L22.7612 11.9838C23.1662 11.917 23.5786 11.8799 23.9986 11.8799C27.8231 11.8799 30.9577 14.8336 31.1827 18.5666L33.4999 20.3774C33.5674 19.9321 33.5974 19.472 33.5974 19.0044V18.997Z" fill="#020B27"/>
</svg>
