<svg width="48" height="38" viewBox="0 0 48 38" fill="none" xmlns="http://www.w3.org/2000/svg">
<path d="M9.76374 8.82143C13.3551 5.42857 18.1297 2.71429 23.9958 2.71429C29.862 2.71429 34.6366 5.42857 38.2279 8.82143C41.8193 12.2143 44.2191 16.2857 45.3273 19C44.2191 21.7143 41.8193 25.7857 38.2279 29.1786C34.6366 32.5714 29.862 35.2857 23.9958 35.2857C18.1297 35.2857 13.3551 32.5714 9.76374 29.1786C6.17238 25.7857 3.77259 21.7143 2.66435 19C3.77259 16.2857 6.17238 12.2143 9.76374 8.82143ZM23.9958 0C17.2631 0 11.8719 3.12143 7.94723 6.83661C4.04757 10.5179 1.43946 14.9286 0.206232 17.9567C-0.068744 18.6268 -0.068744 19.3732 0.206232 20.0433C1.43946 23.0714 4.04757 27.4821 7.94723 31.1634C11.8719 34.8786 17.2631 38 23.9958 38C30.7286 38 36.1198 34.8786 40.0444 31.1634C43.9441 27.4737 46.5522 23.0714 47.7938 20.0433C48.0687 19.3732 48.0687 18.6268 47.7938 17.9567C46.5522 14.9286 43.9441 10.5179 40.0444 6.83661C36.1198 3.12143 30.7286 0 23.9958 0ZM15.9965 19C15.9965 16.8404 16.8393 14.7692 18.3395 13.2421C19.8396 11.715 21.8743 10.8571 23.9958 10.8571C26.1174 10.8571 28.152 11.715 29.6522 13.2421C31.1524 14.7692 31.9951 16.8404 31.9951 19C31.9951 21.1596 31.1524 23.2308 29.6522 24.7579C28.152 26.285 26.1174 27.1429 23.9958 27.1429C21.8743 27.1429 19.8396 26.285 18.3395 24.7579C16.8393 23.2308 15.9965 21.1596 15.9965 19ZM34.6616 19C34.6616 16.1205 33.5379 13.3589 31.5377 11.3228C29.5374 9.28673 26.8246 8.14286 23.9958 8.14286C21.1671 8.14286 18.4542 9.28673 16.454 11.3228C14.4538 13.3589 13.3301 16.1205 13.3301 19C13.3301 21.8795 14.4538 24.641 16.454 26.6772C18.4542 28.7133 21.1671 29.8571 23.9958 29.8571C26.8246 29.8571 29.5374 28.7133 31.5377 26.6772C33.5379 24.641 34.6616 21.8795 34.6616 19Z" fill="#013A51"/>
</svg>
